# xmcd
#
# Track frame offsets:
#	150
#	11850
#	24225
#	42675
#	56550
#	74775
#	88500
#	100425
#	116025
#	133800
#	147450
#	162675
#	176775
#	192225
#	206775
#	221925
#	236325
#	250725
#	265725
#	281475
#
# Disc length: 3942 seconds
#
# Revision: 0
# Processed by: cddbd v1.5.1PL0 Copyright (c) Steve Scherf et al.
# Submitted via: dBpowerAMP V4.0
#
DISCID=440f6414
DTITLE=	ΧΡΥΣΗ ΔΙΣΚΟΘΗΚΗ 1968 - 	ΧΡΥΣΗ ΔΙΣΚΟΘΗΚΗ 1968
DYEAR=1968
DGENRE=Oldies
TTITLE0=ΔΕΛΦΙΝΙ ΔΕΛΦΙΝΑΚΙ - Γ.Καλατζής and Λ.Διαμάντη
TTITLE1=ΠΟΥΝΑΙ ΤΑ ΧΡΟΝΙΑ - Γρ. Μπιθικώτσης
TTITLE2=ΠΑΛΛΗΚΑΡΙ ΔΙΨΑΣΜΕΝΟ - Β.Μοσχολιού
TTITLE3=ΠΕΙΡΑΙΩΤΙΣΣΑ - Στ. Κόκοτας
TTITLE4=ΘΑ ΠΙΩ ΑΠΟΨΕ ΤΟ ΦΕΓΓΑΡΙ - Γ.Πουλόπουλος
TTITLE5=ΟΤΑΝ ΣΗΜΑΝΕΙ Η ΩΡΑ - Γρ. Μπιθικώτσης
TTITLE6=ΕΞΩ ΦΥΣΑΕΙ ΚΑΙ ΒΡΕΧΕΙ - Στ. Κόκοτας
TTITLE7=ΟΠΟΙΟΣ ΔΕΙ ΤΟ ΠΑΛΛΗΚΑΡΙ - Λ.Διαμάντη and Γ.Νταλάρας
TTITLE8=ΤΟ ΠΑΛΙΟ ΡΟΛΟΙ - Γ.Καλατζής
TTITLE9=ΕΝΑ ΠΡΩΙΝΟ (ΑΝΑΜΠΕΛ) - Μαρία Δημητριάδη
TTITLE10=ΕΠΙΣΗΜΗ ΑΓΑΠΗΜΕΝΗ - Γρ. Μπιθικώτσης
TTITLE11=ΤΟ ΠΑΙΔΙ ΑΠ' ΤΟ ΛΙΜΑΝΙ - Στ. Κόκοτας
TTITLE12=ΠΗΡΑ ΑΠ' ΤΟ ΧΕΡΙ ΣΟΥ ΝΕΡΟ - Β.Μοσχολιού
TTITLE13=ΤΑ ΧΡΥΣΑ ΚΛΕΙΔΙΑ - Γ.Καλατζής
TTITLE14=ΑΠΟΨΕ ΣΤΙΣ ΑΚΡΟΓΙΑΛΙΕΣ - Β.Τσιτσάνης and Χ.Λαμπράκη
TTITLE15=ΓΙΑΤΙ ΚΑΛΕ ΓΕΙΤΟΝΙΣΣΑ - Στρ. Διονυσίου
TTITLE16=ΜΠΟΡΕΙ - Μπάμπης Τσετίνης
TTITLE17=ΔΕΝ ΕΙΝΑΙ ΟΝΕΙΡΟ Η ΖΩΗ - Β.Μοσχολιού
TTITLE18=ΑΜΦΙΒΟΛΙΕΣ - Λευτέρης Μυτιληναίος
TTITLE19=ΝΥΧΤΕΡΙΔΕΣ ΚΑΙ ΑΡΑΧΝΕΣ - Στ. Καζαντζίδης
EXTD=
EXTT0=
EXTT1=
EXTT2=
EXTT3=
EXTT4=
EXTT5=
EXTT6=
EXTT7=
EXTT8=
EXTT9=
EXTT10=
EXTT11=
EXTT12=
EXTT13=
EXTT14=
EXTT15=
EXTT16=
EXTT17=
EXTT18=
EXTT19=
PLAYORDER=
